<svg id="bg" xmlns="http://www.w3.org/2000/svg" viewBox="0 0 300 300"><defs><style>.cls-1,.cls-2{fill:none}.cls-2{stroke:#ff3976;stroke-linecap:round;stroke-miterlimit:10}.cls-3{fill:url(#PictoGif_Pattern)}</style><pattern id="PictoGif_Pattern" data-name="PictoGif Pattern" width="100" height="100" patternTransform="translate(-40 -50)" patternUnits="userSpaceOnUse" viewBox="0 0 100 100"><path class="cls-1" d="M0 0h100v100H0z"/><path class="cls-2" d="M119.25 100.15v13.18l-11.41 6.59-11.41-6.59v-13.18l11.41-6.59 11.41 6.59zM19.25 100.15v13.18l-11.41 6.59-11.41-6.59v-13.18l11.41-6.59 11.41 6.59zM119.25.15v13.18l-11.41 6.59-11.41-6.59V.15l11.41-6.59L119.25.15z"/><circle class="cls-2" cx="82.66" cy="70.28" r="3.88"/><circle class="cls-2" cx="25.96" cy="68.6" r="6.6"/><circle class="cls-2" cx="46.89" cy="27.58" r="3.11"/><path class="cls-2" d="M47.58 73.2l31.19 26.16-38.25 13.94 7.06-40.1zM19.25.15v13.18L7.84 19.92l-11.41-6.59V.15L7.84-6.44 19.25.15zM15.25 47.58l8-7.66M59.29 50l3.67 12M68.39 32.78l8.52-8.51 12.25 12.25-8.52 8.52-12.25-12.26zM47.58-26.8L78.77-.64 40.52 13.3l7.06-40.1z"/></pattern></defs><title>Artboard 1</title><rect class="cls-3" width="100%" height="100%"/></svg>