<svg height="190px" xmlns="http://www.w3.org/2000/svg" viewBox="0 0 706.22 476.05"><defs><style>.cls-1,.cls-4{fill:#cfcfcf;}.cls-2,.cls-3,.cls-5{fill:none;}.cls-2,.cls-3,.cls-4{stroke:#ff3976;}.cls-2,.cls-4{stroke-miterlimit:10;}.cls-2,.cls-3,.cls-4,.cls-5{stroke-width:5px;}.cls-3,.cls-5{stroke-linecap:round;stroke-linejoin:round;}.cls-5{stroke:#fff;}</style></defs><title>Asset 1</title><g id="Layer_2" data-name="Layer 2"><g id="Layer_3" data-name="Layer 3"><path class="cls-1" d="M527.56,0" transform="translate(0 -23.1)"/><circle class="cls-2" cx="450.05" cy="260.33" r="150.84"/><path class="cls-2" d="M591.52,200.75a164.64,164.64,0,0,0-59.74-59.35l-19-91.65" transform="translate(0 -23.1)"/><path class="cls-2" d="M308.57,200.75A164.65,164.65,0,0,1,367.35,142" transform="translate(0 -23.1)"/><path class="cls-2" d="M299.21,263.84H271.12a20.77,20.77,0,0,0,0,41.53h28.08" transform="translate(0 -23.1)"/><path class="cls-3" d="M147.9,448.09h453a30,30,0,0,0,30-30v-282a30,30,0,0,0-30-30H534.13l6.56,29c24.46,15,45.87,34.69,62.87,65.7" transform="translate(0 -23.1)"/><path class="cls-3" d="M147.9,448.09" transform="translate(0 -23.1)"/><path class="cls-3" d="M2.65,414.14" transform="translate(0 -23.1)"/><path class="cls-2" d="M375.44,106.09H32.65a30,30,0,0,0-30,30l-.15,292a14.23,14.23,0,0,1,14-14h8.19" transform="translate(0 -23.1)"/><path class="cls-4" d="M134.22,414.14" transform="translate(0 -23.1)"/><path class="cls-4" d="M120.54,414.14" transform="translate(0 -23.1)"/><path class="cls-2" d="M22.49,414.14" transform="translate(0 -23.1)"/><polyline class="cls-2" points="120.54 391.04 32.65 391.04 22.49 391.04"/><path class="cls-4" d="M134.22,177.66" transform="translate(0 -23.1)"/><line class="cls-2" x1="134.22" y1="177.66" x2="324.08" y2="177.66"/><path class="cls-2" d="M137.39,202.72" transform="translate(0 -23.1)"/><path class="cls-2" d="M134.22,200.76" transform="translate(0 -23.1)"/><line class="cls-2" x1="576.23" y1="177.66" x2="630.89" y2="177.66"/><line class="cls-2" x1="134.22" y1="373.66" x2="350.51" y2="373.66"/><line class="cls-2" x1="549.58" y1="373.66" x2="630.89" y2="373.66"/><path class="cls-3" d="M679.45,172" transform="translate(0 -23.1)"/><polyline class="cls-3" points="679.45 177.66 679.45 148.89 621.56 90.99"/><path class="cls-3" d="M679.45,200.76" transform="translate(0 -23.1)"/><path class="cls-3" d="M42.8,496.65" transform="translate(0 -23.1)"/><path class="cls-3" d="M102.8,496.65" transform="translate(0 -23.1)"/><path class="cls-3" d="M649.45,486.65a20,20,0,0,0,20-20" transform="translate(0 -23.1)"/><path class="cls-3" d="M32.49,116.09a20,20,0,0,0-20,20" transform="translate(0 -23.1)"/><path class="cls-2" d="M485.33,25.6a27.5,27.5,0,0,1,0,55H414.76a27.5,27.5,0,1,1,0-55Z" transform="translate(0 -23.1)"/><circle class="cls-3" cx="274.78" cy="261.51" r="8.78"/><line class="cls-3" x1="387.26" y1="30" x2="368.31" y2="118.31"/><circle class="cls-2" cx="450.05" cy="260.33" r="120.77"/><path class="cls-5" d="M409.72,347a75.56,75.56,0,0,1-12.91-10.36" transform="translate(0 -23.1)"/><path class="cls-5" d="M409.72,347" transform="translate(0 -23.1)"/><path class="cls-5" d="M503.28,230.19a75.29,75.29,0,0,1-69.82,126.67" transform="translate(0 -23.1)"/><path class="cls-3" d="M507.63,196A105.23,105.23,0,0,1,524,209.42" transform="translate(0 -23.1)"/><path class="cls-3" d="M376,357.42A104.67,104.67,0,0,1,488.62,186.11" transform="translate(0 -23.1)"/><path class="cls-3" d="M485.33,25.6c26.56,0,61.06,26.16,72.06,80.49" transform="translate(0 -23.1)"/><path class="cls-3" d="M302.38,314.37H281.14c-10.56,0-30.78,1.17-30.78-29.77" transform="translate(0 -23.1)"/><line class="cls-3" x1="134.22" y1="386.09" x2="367.35" y2="386.09"/><line class="cls-3" x1="533.34" y1="386.09" x2="630.89" y2="386.09"/><polyline class="cls-3" points="423.56 74.33 450.05 83.7 479.56 74.33"/><circle class="cls-3" cx="679.3" cy="198.43" r="8.78"/><path class="cls-3" d="M657.74,252.17l21.71-.08c10.71-.55,24.28-4.35,24.28-29.68" transform="translate(0 -23.1)"/><path class="cls-3" d="M657.74,252.14" transform="translate(0 -23.1)"/><path class="cls-3" d="M657.74,252.14l-9.85-9.85V200.76H683a20.77,20.77,0,0,1,0,41.53H647.89" transform="translate(0 -23.1)"/><path class="cls-2" d="M120.54,414.14a13.92,13.92,0,0,1,13.68,14v6a13.93,13.93,0,0,0,13.68,14" transform="translate(0 -23.1)"/><path class="cls-3" d="M485.33,60.6a7.5,7.5,0,0,0,0-15" transform="translate(0 -23.1)"/><path class="cls-3" d="M413.79,45.6a7.5,7.5,0,0,0,0,15" transform="translate(0 -23.1)"/><path class="cls-2" d="M134.22,431.11V180.76a13.93,13.93,0,0,0-13.68-14H2.65" transform="translate(0 -23.1)"/><path class="cls-3" d="M2.5,453.42" transform="translate(0 -23.1)"/><path class="cls-3" d="M2.5,453.42" transform="translate(0 -23.1)"/><path class="cls-3" d="M2.5,428.09v28.26c0,12.07,6.71,40.3,40.3,40.3H649.45a30,30,0,0,0,30-30V252.09" transform="translate(0 -23.1)"/><path class="cls-3" d="M42.8,106.09V99.76a20,20,0,0,1,20-20h59.59a20,20,0,0,1,20,20v6.33" transform="translate(0 -23.1)"/><line class="cls-3" x1="62.89" y1="67.66" x2="122.72" y2="67.66"/><circle class="cls-2" cx="450.05" cy="260.33" r="88.76"/><path class="cls-3" d="M409.72,347a75.56,75.56,0,0,1-12.91-10.36" transform="translate(0 -23.1)"/><path class="cls-3" d="M503.28,230.19a75.29,75.29,0,0,1-69.82,126.67" transform="translate(0 -23.1)"/><path class="cls-3" d="M485.33,60.6a7.5,7.5,0,0,0,0-15" transform="translate(0 -23.1)"/><path class="cls-3" d="M413.79,45.6a7.5,7.5,0,0,0,0,15" transform="translate(0 -23.1)"/></g></g></svg>
