<svg xmlns="http://www.w3.org/2000/svg" viewBox="0 0 288.84 298.19"><defs><style>.cls-1{fill:none}.cls-2{clip-path:url(#clip-path)}.cls-3{fill:#ef4a7c}</style><clipPath id="clip-path"><path class="cls-1" d="M0 0h288.84v298.19H0z"/></clipPath></defs><title>ICON</title><g id="Layer_2" data-name="Layer 2"><g id="Layer_1-2" data-name="Layer 1"><path class="cls-2 cls-2 cls-3" d="M84.5 179.1a29 29 0 0 1-11.12-10.75c-6-10.88-4.16-23.91-2.36-31.14a4.37 4.37 0 0 1 6.32-2.77 58.54 58.54 0 0 0 12.13 4.72c3.27-24.08 6.75-46.29 9.44-61.45 2.36-13.32 39.8 1.18 38.3 24.34-.43 6.72-1.55 20.12-2.94 36.31a169.05 169.05 0 0 0 45.57-18.66c20.42-12.28 61.38-40.9 75.34-64.94a5.24 5.24 0 0 0-3.1-7.71c-45.54-12.46-130.19 1.58-204.4 21A198.28 198.28 0 0 0 14.89 81a4.18 4.18 0 0 1-3.58-7.55L26 61.68a4.34 4.34 0 0 0-.32-7L2 39.05a4.34 4.34 0 0 1 1-7.76c6.9-2.18 17.61-5.39 30.91-8.83C146.86-8.73 219.16-.22 240.28 5.8c12.18 3.47 43.58 31.07 48.11 53.32 2.56 12.58-3.45 58.27-79.42 99.51-31.11 16.89-57.6 25-78.81 27.25a120.75 120.75 0 0 1-13 .26 3.27 3.27 0 0 0-1.79 6.08l11.24 6.74a4.37 4.37 0 0 1 2.1 4.12c-1.8 21.11-3.33 39.29-3.69 47.38-.47 10.65-1.57 18.39-1.64 24.67a9.53 9.53 0 0 1-7.23 9.25 9.33 9.33 0 0 1-11.38-8.09 6.24 6.24 0 0 0-12.06.14l-4 15.55a8 8 0 0 1-8.51 6.21c-4.49-.4-7.47-4.61-7.16-9.11z" id="ICON"/></g></g></svg>