<?xml version="1.0" encoding="utf-8"?>
<!-- Generator: Adobe Illustrator 20.0.0, SVG Export Plug-In . SVG Version: 6.00 Build 0)  -->
<svg height="320px" version="1.1" id="Layer_1" xmlns="http://www.w3.org/2000/svg" xmlns:xlink="http://www.w3.org/1999/xlink" x="0px" y="0px"
	 viewBox="0 0 490.4 891.5" style="enable-background:new 0 0 490.4 891.5;" xml:space="preserve">
<g>
	<g>
		<line style="fill:none;stroke:#FF3976;stroke-width:4;stroke-miterlimit:10;" x1="109.4" y1="509.9" x2="189" y2="501.7"/>
		<line style="fill:none;stroke:#FF3976;stroke-width:4;stroke-miterlimit:10;" x1="176.5" y1="554.2" x2="94.5" y2="562.2"/>
		<path style="fill:none;stroke:#FF3976;stroke-width:4;stroke-miterlimit:10;" d="M148.4,396.7l12.8-1.6c10.5-1.3,19.6,7.4,18.7,18
			l-5.4,63.1c-0.7,8-7,14.4-14.9,15.2l-13.6,1.4c-10.5,1.1-19.4-7.7-18.3-18.3l6.2-62.9C134.5,403.9,140.6,397.6,148.4,396.7z"/>
		<path style="fill:none;stroke:#FF3976;stroke-width:4;stroke-miterlimit:10;" d="M122.9,522.5l42.3-4.3c2.7-0.3,4.9,2.2,4.3,4.9
			l-3.6,15.4c-0.4,1.7-1.8,2.9-3.5,3.1l-42.9,4.2c-2.8,0.3-5-2.4-4.2-5.1l4.3-15.2C119.9,523.9,121.3,522.7,122.9,522.5z"/>
		<g>
			<g>
				<path style="fill:none;stroke:#FF3976;stroke-width:4;stroke-miterlimit:10;" d="M104.3,583.7l12.5-1.7c1.2-0.2,1.8,0.8,1.8,2
					v11.5c0,1,0.2,1.9-0.8,2l-13.5,1.6c-1.2,0.1-2.7-0.8-2.7-2v-11.4C101.5,584.6,103.3,583.8,104.3,583.7z"/>
				<path style="fill:none;stroke:#FF3976;stroke-width:4;stroke-miterlimit:10;" d="M128.5,579.7l12.4-1.7c1.2-0.2,1.6,0.8,1.6,2
					v11.5c0,1,0.5,1.9-0.5,2l-13.6,1.6c-1.2,0.1-2.9-0.8-2.9-2v-11.4C125.5,580.6,127.5,579.8,128.5,579.7z"/>
				<path style="fill:none;stroke:#FF3976;stroke-width:4;stroke-miterlimit:10;" d="M153.3,575.7l12.5-1.7c1.2-0.2,1.8,0.8,1.8,2
					v11.5c0,1,0.2,1.9-0.8,2l-13.5,1.6c-1.2,0.1-2.7-0.8-2.7-2v-11.4C150.5,576.6,152.3,575.8,153.3,575.7z"/>
			</g>
			<g>
				<path style="fill:none;stroke:#FF3976;stroke-width:4;stroke-miterlimit:10;" d="M104.3,611.3l12.5-1.7c1.2-0.2,1.8,0.8,1.8,2
					v11.5c0,1,0.2,1.9-0.8,2l-13.5,1.6c-1.2,0.1-2.7-0.8-2.7-2v-11.4C101.5,612.3,103.3,611.5,104.3,611.3z"/>
				<path style="fill:none;stroke:#FF3976;stroke-width:4;stroke-miterlimit:10;" d="M128.5,607.3l12.4-1.7c1.2-0.2,1.6,0.8,1.6,2
					v11.5c0,1,0.5,1.9-0.5,2l-13.6,1.6c-1.2,0.1-2.9-0.8-2.9-2v-11.4C125.5,608.3,127.5,607.5,128.5,607.3z"/>
				<path style="fill:none;stroke:#FF3976;stroke-width:4;stroke-miterlimit:10;" d="M153.3,603.3l12.5-1.7c1.2-0.2,1.8,0.8,1.8,2
					v11.5c0,1,0.2,1.9-0.8,2l-13.5,1.6c-1.2,0.1-2.7-0.8-2.7-2v-11.4C150.5,604.3,152.3,603.5,153.3,603.3z"/>
			</g>
			<g>
				<path style="fill:none;stroke:#FF3976;stroke-width:4;stroke-miterlimit:10;" d="M104.3,639l12.5-1.7c1.2-0.2,1.8,0.8,1.8,2
					v11.5c0,1,0.2,1.9-0.8,2l-13.5,1.6c-1.2,0.1-2.7-0.8-2.7-2V641C101.5,640,103.3,639.1,104.3,639z"/>
				<path style="fill:none;stroke:#FF3976;stroke-width:4;stroke-miterlimit:10;" d="M128.5,635l12.4-1.7c1.2-0.2,1.6,0.8,1.6,2
					v11.5c0,1,0.5,1.9-0.5,2l-13.6,1.6c-1.2,0.1-2.9-0.8-2.9-2V637C125.5,636,127.5,635.1,128.5,635z"/>
				<path style="fill:none;stroke:#FF3976;stroke-width:4;stroke-miterlimit:10;" d="M153.3,631l12.5-1.7c1.2-0.2,1.8,0.8,1.8,2
					v11.5c0,1,0.2,1.9-0.8,2l-13.5,1.6c-1.2,0.1-2.7-0.8-2.7-2V633C150.5,632,152.3,631.1,153.3,631z"/>
			</g>
			<g>
				<path style="fill:none;stroke:#FF3976;stroke-width:4;stroke-miterlimit:10;" d="M104.3,666.7l12.5-1.7c1.2-0.2,1.8,0.8,1.8,2
					v11.5c0,1,0.2,1.9-0.8,2l-13.5,1.6c-1.2,0.1-2.7-0.8-2.7-2v-11.4C101.5,667.6,103.3,666.8,104.3,666.7z"/>
				<path style="fill:none;stroke:#FF3976;stroke-width:4;stroke-miterlimit:10;" d="M128.5,662.7l12.4-1.7c1.2-0.2,1.6,0.8,1.6,2
					v11.5c0,1,0.5,1.9-0.5,2l-13.6,1.6c-1.2,0.1-2.9-0.8-2.9-2v-11.4C125.5,663.6,127.5,662.8,128.5,662.7z"/>
				<path style="fill:none;stroke:#FF3976;stroke-width:4;stroke-miterlimit:10;" d="M153.3,658.7l12.5-1.7c1.2-0.2,1.8,0.8,1.8,2
					v11.5c0,1,0.2,1.9-0.8,2l-13.5,1.6c-1.2,0.1-2.7-0.8-2.7-2v-11.4C150.5,659.6,152.3,658.8,153.3,658.7z"/>
			</g>
		</g>
		<path style="fill:none;stroke:#FF3976;stroke-width:4;stroke-miterlimit:10;" d="M109.4,509.9l-14.8,52.4v219.6
			c0,7.5,1.5,14.9,4.5,21.8l23.1,53.2c2.3,5.4,8.2,8.3,13.9,6.9l63.6-15.7l-20.3-61.5c-1.8-5.6-2.8-11.4-2.8-17.2v-215l12.5-52.5
			l9.7-113.1c0.5-6-4.3-11.1-10.3-10.9l-61.1,3.3c-6.9,0.4-12.4,5.9-12.8,12.9L109.4,509.9z"/>
		<path style="fill:none;stroke:#FF3976;stroke-width:4;stroke-miterlimit:10;" d="M40.5,357.6l-27.7,3.1c-6.2,0.6-10.9,5.8-10.9,12
			l0.5,458.6c0,4.8,2.9,9.2,7.4,11.1l111.8,46.3c2.4,1,5,1.2,7.4,0.6l61.2-14.9c5.4-1.3,9.1-6.1,9.2-11.6l0.1-14.7"/>
		<line style="fill:none;stroke:#FF3976;stroke-width:4;stroke-miterlimit:10;" x1="188.4" y1="377.8" x2="68.7" y2="354.4"/>
		<path style="fill:none;stroke:#FF3976;stroke-width:4;stroke-miterlimit:10;" d="M112.8,803l55.4-11.6c2-0.4,4,0.8,4.6,2.7
			l7.2,22.9c0.7,2.2-0.7,4.6-2.9,5.1l-51.9,11.7c-1.8,0.4-3.7-0.5-4.5-2.2l-10.7-23C108.9,806.2,110.3,803.5,112.8,803z"/>
		<g>
			<path style="fill:none;stroke:#FF3976;stroke-width:4;stroke-miterlimit:10;" d="M68.5,359.2V231.3c0-7.9-0.9-16.1-2.7-23.1h0.3
				c-1.9-8-2.5-16-2.5-24v-78.5c0-4.7-3.7-8.7-8.4-8.7c-4.7-0.1-8.6,3.8-8.6,8.5v78.7c0,7.9-1.1,16-3,24h-0.1
				c-1.9,7-2.9,15.2-2.9,23.1v127.9"/>
			<path style="fill:none;stroke:#FF3976;stroke-width:4;stroke-miterlimit:10;" d="M68.7,359.4c0,2.8-6.3,5.1-14.1,5.1
				s-14.1-2.3-14.1-5.1"/>
		</g>
	</g>
	<g>
		<line style="fill:none;stroke:#FF3976;stroke-width:4;stroke-miterlimit:10;" x1="253.4" y1="462.3" x2="333" y2="454.2"/>
		<line style="fill:none;stroke:#FF3976;stroke-width:4;stroke-miterlimit:10;" x1="320.6" y1="506.7" x2="238.6" y2="514.7"/>
		<path style="fill:none;stroke:#FF3976;stroke-width:4;stroke-miterlimit:10;" d="M292.4,349.2l12.8-1.6c10.5-1.3,19.6,7.4,18.7,18
			l-5.4,63.1c-0.7,8-7,14.4-14.9,15.2l-13.6,1.4c-10.5,1.1-19.4-7.7-18.3-18.3l6.2-62.9C278.6,356.3,284.7,350.1,292.4,349.2z"/>
		<path style="fill:none;stroke:#FF3976;stroke-width:4;stroke-miterlimit:10;" d="M267,475l42.3-4.3c2.7-0.3,4.9,2.2,4.3,4.9
			l-3.6,15.4c-0.4,1.7-1.8,2.9-3.5,3.1l-42.9,4.2c-2.8,0.3-5-2.4-4.2-5.1l4.3-15.2C264,476.3,265.4,475.2,267,475z"/>
		<g>
			<g>
				<path style="fill:none;stroke:#FF3976;stroke-width:4;stroke-miterlimit:10;" d="M248.3,536.1l12.5-1.7c1.2-0.2,1.7,0.8,1.7,2
					v11.5c0,1,0.3,1.9-0.7,2l-13.5,1.6c-1.2,0.1-2.8-0.8-2.8-2v-11.4C245.5,537.1,247.3,536.3,248.3,536.1z"/>
				<path style="fill:none;stroke:#FF3976;stroke-width:4;stroke-miterlimit:10;" d="M272.6,532.1l12.4-1.7c1.2-0.2,1.6,0.8,1.6,2
					v11.5c0,1,0.5,1.9-0.5,2l-13.6,1.6c-1.2,0.1-2.9-0.8-2.9-2v-11.4C269.5,533.1,271.6,532.3,272.6,532.1z"/>
				<path style="fill:none;stroke:#FF3976;stroke-width:4;stroke-miterlimit:10;" d="M297.3,528.1l12.5-1.7c1.2-0.2,1.7,0.8,1.7,2
					v11.5c0,1,0.3,1.9-0.7,2l-13.5,1.6c-1.2,0.1-2.8-0.8-2.8-2v-11.4C294.5,529.1,296.3,528.3,297.3,528.1z"/>
			</g>
			<g>
				<path style="fill:none;stroke:#FF3976;stroke-width:4;stroke-miterlimit:10;" d="M248.3,563.8l12.5-1.7c1.2-0.2,1.7,0.8,1.7,2
					v11.5c0,1,0.3,1.9-0.7,2l-13.5,1.6c-1.2,0.1-2.8-0.8-2.8-2v-11.4C245.5,564.8,247.3,563.9,248.3,563.8z"/>
				<path style="fill:none;stroke:#FF3976;stroke-width:4;stroke-miterlimit:10;" d="M272.6,559.8l12.4-1.7c1.2-0.2,1.6,0.8,1.6,2
					v11.5c0,1,0.5,1.9-0.5,2l-13.6,1.6c-1.2,0.1-2.9-0.8-2.9-2v-11.4C269.5,560.8,271.6,559.9,272.6,559.8z"/>
				<path style="fill:none;stroke:#FF3976;stroke-width:4;stroke-miterlimit:10;" d="M297.3,555.8l12.5-1.7c1.2-0.2,1.7,0.8,1.7,2
					v11.5c0,1,0.3,1.9-0.7,2l-13.5,1.6c-1.2,0.1-2.8-0.8-2.8-2v-11.4C294.5,556.8,296.3,555.9,297.3,555.8z"/>
			</g>
			<g>
				<path style="fill:none;stroke:#FF3976;stroke-width:4;stroke-miterlimit:10;" d="M248.3,591.5l12.5-1.7c1.2-0.2,1.7,0.8,1.7,2
					v11.5c0,1,0.3,1.9-0.7,2l-13.5,1.6c-1.2,0.1-2.8-0.8-2.8-2v-11.4C245.5,592.4,247.3,591.6,248.3,591.5z"/>
				<path style="fill:none;stroke:#FF3976;stroke-width:4;stroke-miterlimit:10;" d="M272.6,587.5l12.4-1.7c1.2-0.2,1.6,0.8,1.6,2
					v11.5c0,1,0.5,1.9-0.5,2l-13.6,1.6c-1.2,0.1-2.9-0.8-2.9-2v-11.4C269.5,588.4,271.6,587.6,272.6,587.5z"/>
				<path style="fill:none;stroke:#FF3976;stroke-width:4;stroke-miterlimit:10;" d="M297.3,583.5l12.5-1.7c1.2-0.2,1.7,0.8,1.7,2
					v11.5c0,1,0.3,1.9-0.7,2l-13.5,1.6c-1.2,0.1-2.8-0.8-2.8-2v-11.4C294.5,584.4,296.3,583.6,297.3,583.5z"/>
			</g>
			<g>
				<path style="fill:none;stroke:#FF3976;stroke-width:4;stroke-miterlimit:10;" d="M248.3,619.1l12.5-1.7c1.2-0.2,1.7,0.8,1.7,2
					v11.5c0,1,0.3,1.9-0.7,2l-13.5,1.6c-1.2,0.1-2.8-0.8-2.8-2v-11.4C245.5,620.1,247.3,619.3,248.3,619.1z"/>
				<path style="fill:none;stroke:#FF3976;stroke-width:4;stroke-miterlimit:10;" d="M272.6,615.1l12.4-1.7c1.2-0.2,1.6,0.8,1.6,2
					v11.5c0,1,0.5,1.9-0.5,2l-13.6,1.6c-1.2,0.1-2.9-0.8-2.9-2v-11.4C269.5,616.1,271.6,615.3,272.6,615.1z"/>
				<path style="fill:none;stroke:#FF3976;stroke-width:4;stroke-miterlimit:10;" d="M297.3,611.1l12.5-1.7c1.2-0.2,1.7,0.8,1.7,2
					v11.5c0,1,0.3,1.9-0.7,2l-13.5,1.6c-1.2,0.1-2.8-0.8-2.8-2v-11.4C294.5,612.1,296.3,611.3,297.3,611.1z"/>
			</g>
		</g>
		<path style="fill:none;stroke:#FF3976;stroke-width:4;stroke-miterlimit:10;" d="M253.4,462.3l-14.9,52.4v219.6
			c0,7.5,1.6,14.9,4.6,21.8l23.1,53.2c2.3,5.4,8.2,8.3,13.9,6.9l63.6-15.7L323.3,739c-1.8-5.6-2.8-11.4-2.8-17.2v-215l12.5-52.5
			l9.8-113.1c0.5-6-4.3-11.1-10.3-10.9l-61.1,3.3c-6.9,0.4-12.5,5.9-12.8,12.9L253.4,462.3z"/>
		<path style="fill:none;stroke:#FF3976;stroke-width:4;stroke-miterlimit:10;" d="M186.5,808.2l79.3,32.9c2.4,1,5,1.2,7.4,0.6
			l61.2-14.9c5.4-1.3,9.1-6.1,9.2-11.6l0.1-14.7"/>
		<path style="fill:none;stroke:#FF3976;stroke-width:4;stroke-miterlimit:10;" d="M184.6,310.1l-27.7,3.1
			c-6.2,0.6-10.9,5.8-10.9,12l0,44.4"/>
		<line style="fill:none;stroke:#FF3976;stroke-width:4;stroke-miterlimit:10;" x1="332.5" y1="330.2" x2="212.7" y2="306.9"/>
		<path style="fill:none;stroke:#FF3976;stroke-width:4;stroke-miterlimit:10;" d="M256.9,755.4l55.4-11.6c2-0.4,4,0.8,4.6,2.7
			l7.2,22.9c0.7,2.2-0.7,4.6-2.9,5.1l-51.9,11.7c-1.8,0.4-3.7-0.5-4.5-2.2l-10.7-23C253,758.7,254.4,756,256.9,755.4z"/>
		<g>
			<path style="fill:none;stroke:#FF3976;stroke-width:4;stroke-miterlimit:10;" d="M212.5,311.2V183.8c0-7.9-0.8-16.6-2.7-23.6h0.3
				c-1.9-8-2.6-15.6-2.6-23.5V58.2c0-4.7-3.7-8.7-8.4-8.7c-4.7-0.1-8.6,3.8-8.6,8.5v78.7c0,7.9-1.1,15.5-2.9,23.5h-0.1
				c-1.9,7-3,15.7-3,23.6v127.4"/>
			<path style="fill:none;stroke:#FF3976;stroke-width:4;stroke-miterlimit:10;" d="M212.7,311.8c0,2.8-6.3,5.1-14.1,5.1
				s-14.1-2.3-14.1-5.1"/>
		</g>
	</g>
	<g>
		<line style="fill:none;stroke:#FF3976;stroke-width:4;stroke-miterlimit:10;" x1="397.5" y1="414.8" x2="477.1" y2="406.7"/>
		<line style="fill:none;stroke:#FF3976;stroke-width:4;stroke-miterlimit:10;" x1="464.7" y1="459.2" x2="382.7" y2="467.2"/>
		<path style="fill:none;stroke:#FF3976;stroke-width:4;stroke-miterlimit:10;" d="M436.5,301.6l12.8-1.6c10.5-1.3,19.6,7.4,18.7,18
			l-5.4,63.1c-0.7,8-7,14.4-14.9,15.2l-13.6,1.4c-10.5,1.1-19.4-7.7-18.3-18.3l6.2-62.9C422.7,308.8,428.7,302.6,436.5,301.6z"/>
		<path style="fill:none;stroke:#FF3976;stroke-width:4;stroke-miterlimit:10;" d="M411.1,427.5l42.3-4.3c2.7-0.3,4.9,2.2,4.3,4.9
			l-3.6,15.4c-0.4,1.7-1.8,2.9-3.5,3.1l-42.9,4.2c-2.8,0.3-5-2.4-4.2-5.1l4.3-15.2C408.1,428.8,409.5,427.7,411.1,427.5z"/>
		<g>
			<g>
				<path style="fill:none;stroke:#FF3976;stroke-width:4;stroke-miterlimit:10;" d="M392.3,488.6l12.5-1.7c1.2-0.2,1.7,0.8,1.7,2
					v11.5c0,1,0.3,1.9-0.7,2l-13.5,1.6c-1.2,0.1-2.8-0.8-2.8-2v-11.4C389.5,489.6,391.3,488.7,392.3,488.6z"/>
				<path style="fill:none;stroke:#FF3976;stroke-width:4;stroke-miterlimit:10;" d="M416.6,484.6l12.3-1.7c1.2-0.2,1.6,0.8,1.6,2
					v11.5c0,1,0.6,1.9-0.4,2l-13.7,1.6c-1.2,0.1-2.9-0.8-2.9-2v-11.4C413.5,485.6,415.6,484.7,416.6,484.6z"/>
				<path style="fill:none;stroke:#FF3976;stroke-width:4;stroke-miterlimit:10;" d="M441.3,480.6l12.5-1.7c1.2-0.2,1.7,0.8,1.7,2
					v11.5c0,1,0.3,1.9-0.7,2l-13.5,1.6c-1.2,0.1-2.8-0.8-2.8-2v-11.4C438.5,481.6,440.3,480.7,441.3,480.6z"/>
			</g>
			<g>
				<path style="fill:none;stroke:#FF3976;stroke-width:4;stroke-miterlimit:10;" d="M392.3,516.3l12.5-1.7c1.2-0.2,1.7,0.8,1.7,2
					v11.5c0,1,0.3,1.9-0.7,2l-13.5,1.6c-1.2,0.1-2.8-0.8-2.8-2v-11.4C389.5,517.3,391.3,516.4,392.3,516.3z"/>
				<path style="fill:none;stroke:#FF3976;stroke-width:4;stroke-miterlimit:10;" d="M416.6,512.3l12.3-1.7c1.2-0.2,1.6,0.8,1.6,2
					v11.5c0,1,0.6,1.9-0.4,2l-13.7,1.6c-1.2,0.1-2.9-0.8-2.9-2v-11.4C413.5,513.3,415.6,512.4,416.6,512.3z"/>
				<path style="fill:none;stroke:#FF3976;stroke-width:4;stroke-miterlimit:10;" d="M441.3,508.3l12.5-1.7c1.2-0.2,1.7,0.8,1.7,2
					v11.5c0,1,0.3,1.9-0.7,2l-13.5,1.6c-1.2,0.1-2.8-0.8-2.8-2v-11.4C438.5,509.3,440.3,508.4,441.3,508.3z"/>
			</g>
			<g>
				<path style="fill:none;stroke:#FF3976;stroke-width:4;stroke-miterlimit:10;" d="M392.3,543.9l12.5-1.7c1.2-0.2,1.7,0.8,1.7,2
					v11.5c0,1,0.3,1.9-0.7,2l-13.5,1.6c-1.2,0.1-2.8-0.8-2.8-2v-11.4C389.5,544.9,391.3,544.1,392.3,543.9z"/>
				<path style="fill:none;stroke:#FF3976;stroke-width:4;stroke-miterlimit:10;" d="M416.6,539.9l12.3-1.7c1.2-0.2,1.6,0.8,1.6,2
					v11.5c0,1,0.6,1.9-0.4,2l-13.7,1.6c-1.2,0.1-2.9-0.8-2.9-2v-11.4C413.5,540.9,415.6,540.1,416.6,539.9z"/>
				<path style="fill:none;stroke:#FF3976;stroke-width:4;stroke-miterlimit:10;" d="M441.3,535.9l12.5-1.7c1.2-0.2,1.7,0.8,1.7,2
					v11.5c0,1,0.3,1.9-0.7,2l-13.5,1.6c-1.2,0.1-2.8-0.8-2.8-2v-11.4C438.5,536.9,440.3,536.1,441.3,535.9z"/>
			</g>
			<g>
				<path style="fill:none;stroke:#FF3976;stroke-width:4;stroke-miterlimit:10;" d="M392.3,571.6l12.5-1.7c1.2-0.2,1.7,0.8,1.7,2
					v11.5c0,1,0.3,1.9-0.7,2l-13.5,1.6c-1.2,0.1-2.8-0.8-2.8-2v-11.4C389.5,572.6,391.3,571.7,392.3,571.6z"/>
				<path style="fill:none;stroke:#FF3976;stroke-width:4;stroke-miterlimit:10;" d="M416.6,567.6l12.3-1.7c1.2-0.2,1.6,0.8,1.6,2
					v11.5c0,1,0.6,1.9-0.4,2l-13.7,1.6c-1.2,0.1-2.9-0.8-2.9-2v-11.4C413.5,568.6,415.6,567.7,416.6,567.6z"/>
				<path style="fill:none;stroke:#FF3976;stroke-width:4;stroke-miterlimit:10;" d="M441.3,563.6l12.5-1.7c1.2-0.2,1.7,0.8,1.7,2
					v11.5c0,1,0.3,1.9-0.7,2l-13.5,1.6c-1.2,0.1-2.8-0.8-2.8-2v-11.4C438.5,564.6,440.3,563.7,441.3,563.6z"/>
			</g>
		</g>
		<path style="fill:none;stroke:#FF3976;stroke-width:4;stroke-miterlimit:10;" d="M397.4,414.8l-14.9,52.4v219.6
			c0,7.5,1.6,14.9,4.6,21.8l23.1,53.2c2.3,5.4,8.2,8.3,13.9,6.9l63.6-15.7l-20.4-61.5c-1.8-5.6-2.8-11.4-2.8-17.2v-215l12.5-52.5
			l9.8-113.1c0.5-6-4.3-11.1-10.3-10.9l-61.1,3.3c-6.9,0.4-12.5,5.9-12.8,12.9L397.4,414.8z"/>
		<path style="fill:none;stroke:#FF3976;stroke-width:4;stroke-miterlimit:10;" d="M330.5,760.7l79.4,32.9c2.4,1,5,1.2,7.4,0.6
			l61.2-14.9c5.4-1.3,9.1-6.1,9.2-11.6l0.1-14.7"/>
		<path style="fill:none;stroke:#FF3976;stroke-width:4;stroke-miterlimit:10;" d="M328.7,262.5l-27.7,3.1
			c-6.2,0.6-10.9,5.8-10.9,12l0,44.4"/>
		<line style="fill:none;stroke:#FF3976;stroke-width:4;stroke-miterlimit:10;" x1="476.5" y1="282.7" x2="356.8" y2="259.4"/>
		<path style="fill:none;stroke:#FF3976;stroke-width:4;stroke-miterlimit:10;" d="M401,707.9l55.4-11.6c2-0.4,4,0.8,4.6,2.7
			l7.2,22.9c0.7,2.2-0.7,4.6-2.9,5.1l-51.9,11.7c-1.8,0.4-3.7-0.5-4.5-2.2l-10.7-23C397.1,711.2,398.5,708.4,401,707.9z"/>
		<g>
			<path style="fill:none;stroke:#FF3976;stroke-width:4;stroke-miterlimit:10;" d="M356.5,264.2V136.3c0-7.9-0.7-16.1-2.6-23.1h0.3
				c-1.9-8-2.7-16.1-2.7-24V10.7c0-4.7-3.7-8.7-8.4-8.7c-4.7-0.1-8.6,3.8-8.6,8.5v78.7c0,7.9-1,16-2.8,24h-0.1
				c-1.9,7-3.1,15.1-3.1,23.1v127.9"/>
			<path style="fill:none;stroke:#FF3976;stroke-width:4;stroke-miterlimit:10;" d="M356.8,264.3c0,2.8-6.3,5.1-14.1,5.1
				s-14.1-2.3-14.1-5.1"/>
		</g>
	</g>
</g>
</svg>
